<?xml version="1.0" standalone="no"?>
<!DOCTYPE svg PUBLIC "-//W3C//DTD SVG 20010904//EN"
 "http://www.w3.org/TR/2001/REC-SVG-20010904/DTD/svg10.dtd">
<svg version="1.0" xmlns="http://www.w3.org/2000/svg"
 width="2000.000000pt" height="2000.000000pt" viewBox="0 0 2000.000000 2000.000000"
 preserveAspectRatio="xMidYMid meet">
<metadata>
Created by potrace 1.14, written by Peter Selinger 2001-2017
</metadata>
<g transform="translate(0.000000,2000.000000) scale(0.100000,-0.100000)"
fill="#000000" stroke="none">
<path d="M7288 14650 l-277 -5 142 -190 c209 -280 440 -592 548 -738 52 -71
183 -249 292 -395 109 -147 244 -329 300 -405 324 -437 454 -610 507 -678 82
-106 97 -132 81 -150 -6 -8 -71 -95 -143 -194 -163 -223 -409 -555 -1053
-1420 -94 -126 -204 -275 -245 -330 -40 -55 -154 -207 -253 -338 -98 -132
-177 -241 -174 -243 2 -2 1348 -3 2990 -2 l2987 3 -35 45 c-73 93 -151 197
-185 245 -41 60 -137 190 -365 497 -93 125 -228 307 -300 404 -71 97 -204 276
-294 398 -90 121 -194 262 -231 311 -36 50 -157 212 -268 362 -111 149 -202
276 -202 282 0 5 114 162 253 348 139 186 314 421 390 523 289 391 380 513
563 760 105 140 266 359 359 485 93 127 202 273 241 325 40 52 71 96 70 98 -5
5 -5422 7 -5698 2z"/>
<path d="M4816 8628 c-132 -19 -215 -167 -160 -284 22 -46 85 -100 131 -113
165 -46 323 49 323 194 0 140 -126 228 -294 203z"/>
<path d="M9650 8435 c-126 -27 -222 -76 -303 -154 -105 -100 -150 -259 -113
-398 18 -68 44 -109 105 -166 79 -74 155 -106 384 -162 242 -58 290 -80 302
-136 14 -64 -50 -114 -159 -124 -145 -14 -342 29 -480 106 l-55 30 -31 -67
c-16 -37 -30 -69 -30 -71 0 -3 -16 -38 -36 -79 -42 -89 -42 -89 60 -138 155
-76 360 -113 563 -103 366 18 589 210 571 490 -13 195 -136 307 -418 377 -329
81 -342 86 -369 131 -24 39 -14 77 30 114 44 37 101 48 209 42 113 -6 198 -27
298 -73 65 -30 74 -31 79 -16 3 9 29 76 59 147 l53 130 -24 21 c-31 28 -154
69 -283 94 -121 24 -313 26 -412 5z"/>
<path d="M3097 8424 c-4 -4 -7 -79 -7 -166 l0 -158 33 -2 c42 -2 122 -4 280
-6 l127 -2 0 -545 c0 -300 3 -545 8 -545 4 0 95 -1 202 -3 l195 -2 3 550 2
550 203 0 c111 0 208 2 215 4 17 5 17 317 0 323 -22 8 -1253 9 -1261 2z"/>
<path d="M10818 8208 l-3 -143 -30 -2 c-16 0 -51 -2 -77 -2 l-48 -1 0 -145 0
-145 43 -1 c23 0 58 -1 78 -1 l37 -1 4 -236 c4 -211 7 -242 26 -296 41 -112
108 -179 230 -226 49 -20 76 -23 192 -23 120 0 142 2 200 25 51 19 65 29 64
44 -2 27 -73 248 -83 258 -5 5 -22 2 -39 -7 -17 -9 -55 -16 -86 -16 -53 0 -57
2 -81 37 -25 37 -25 40 -25 240 l0 202 123 3 122 3 0 145 0 145 -122 -4 -123
-3 -1 39 c0 21 -1 85 -2 143 l-2 105 -197 3 -197 2 -3 -142z"/>
<path d="M6070 8106 c-52 -15 -102 -39 -145 -70 -58 -43 -57 -43 -53 15 3 50
2 54 -19 53 -13 0 -97 -1 -188 -2 l-165 -2 0 -553 0 -552 188 1 c103 1 190 2
194 3 4 0 8 146 10 324 l3 322 27 47 c38 64 88 93 160 93 69 0 103 -22 136
-85 21 -43 22 -52 22 -372 l0 -328 196 2 195 3 5 310 c6 345 10 372 69 424 68
59 155 65 216 14 62 -53 64 -64 65 -426 1 -180 3 -329 5 -330 2 -1 91 -1 197
1 l192 3 0 347 c0 191 -5 376 -11 412 -20 130 -98 249 -197 303 -93 51 -253
71 -362 46 -67 -15 -166 -67 -210 -111 -22 -21 -43 -38 -46 -38 -3 0 -25 20
-49 44 -50 51 -101 80 -182 101 -68 18 -190 18 -253 1z"/>
<path d="M8162 8100 c-96 -26 -178 -70 -250 -136 -214 -193 -242 -523 -64
-757 66 -86 195 -168 324 -203 89 -25 282 -30 372 -10 124 28 297 126 296 168
-1 7 -44 58 -96 113 l-94 100 -28 -17 c-127 -81 -273 -96 -389 -42 -34 17
-102 97 -103 122 0 9 85 12 394 12 l394 0 7 50 c9 69 -2 161 -31 249 -57 171
-182 290 -364 346 -33 10 -103 18 -175 21 -98 3 -133 1 -193 -16z m254 -275
c58 -17 110 -65 129 -121 l13 -39 -109 -3 c-60 -1 -158 -1 -217 0 l-108 3 8
33 c5 19 28 53 52 76 62 63 138 79 232 51z"/>
<path d="M12178 8110 c-109 -20 -295 -87 -319 -116 -9 -11 -8 -18 4 -32 19
-20 97 -188 97 -207 0 -23 18 -26 52 -9 62 32 174 65 243 71 96 8 172 -14 214
-62 31 -36 49 -80 36 -93 -3 -4 -93 -10 -198 -13 -155 -5 -204 -10 -257 -27
-164 -53 -240 -149 -240 -302 0 -86 24 -151 76 -209 94 -105 280 -162 416
-129 74 19 157 64 210 116 l38 36 -7 -66 -6 -65 44 -5 c24 -2 105 -4 179 -3
l135 0 8 170 c10 216 1 544 -17 610 -44 164 -155 273 -327 321 -63 18 -311 27
-381 14z m334 -675 c2 -3 2 -27 -2 -55 -5 -40 -14 -58 -45 -90 -95 -97 -276
-67 -275 47 1 78 48 102 206 103 61 0 113 -2 116 -5z"/>
<path d="M13878 8101 c-62 -20 -137 -61 -158 -85 -23 -29 -33 -18 -27 29 4 27
2 47 -4 51 -6 3 -90 6 -187 6 l-177 -1 -3 -554 -2 -554 182 4 c101 2 188 6
195 8 9 3 13 86 15 322 l3 318 27 47 c38 64 88 93 160 93 65 0 100 -20 133
-76 19 -32 20 -57 25 -373 l5 -339 183 -2 c101 0 187 2 193 5 6 4 11 129 13
318 4 296 5 313 26 356 78 161 282 147 319 -22 7 -33 11 -167 11 -352 0 -233
3 -300 13 -300 6 0 89 -2 182 -5 94 -3 176 -1 183 4 11 7 13 78 10 387 -4 355
-6 383 -26 444 -42 128 -141 231 -257 266 -73 22 -211 29 -276 14 -77 -18
-174 -67 -218 -112 -21 -21 -40 -38 -43 -38 -2 0 -25 20 -52 45 -26 25 -65 54
-86 65 -100 51 -257 64 -362 31z"/>
<path d="M16180 8104 c-30 -8 -77 -30 -105 -48 -70 -46 -69 -46 -75 4 l-5 45
-180 -3 -180 -2 -3 -750 -2 -750 192 2 193 3 3 238 c2 216 7 259 27 227 11
-19 119 -67 173 -79 94 -20 188 -14 279 18 234 81 365 276 366 541 0 121 -15
184 -67 285 -95 185 -266 285 -486 284 -41 0 -100 -7 -130 -15z m169 -323 c43
-23 62 -43 90 -98 27 -55 36 -136 22 -203 -25 -117 -104 -181 -224 -182 -72 0
-106 14 -154 64 -48 49 -66 101 -66 189 -1 58 4 86 22 122 27 56 89 112 139
126 48 13 126 5 171 -18z"/>
<path d="M4684 8096 c-2 -6 -3 -256 -2 -556 l3 -544 180 1 c99 1 186 2 193 2
9 1 12 119 12 555 l0 555 -191 -1 c-130 0 -192 -4 -195 -12z"/>
<path d="M8060 6225 c-212 -60 -330 -308 -234 -496 56 -111 161 -190 278 -209
98 -16 244 16 305 68 32 26 34 33 38 102 2 41 1 100 -4 130 l-8 55 -45 0 -45
0 -7 -93 c-7 -110 -18 -126 -89 -141 -110 -24 -185 -8 -247 52 -108 103 -110
259 -6 359 52 49 100 68 176 68 77 0 124 -13 174 -46 l38 -26 32 38 c17 21 30
43 28 49 -8 19 -87 65 -139 81 -75 23 -181 27 -245 9z"/>
<path d="M11580 6228 c0 -7 27 -51 61 -98 96 -134 159 -228 159 -239 0 -11
-115 -182 -239 -352 -13 -18 -10 -19 57 -19 70 0 71 0 106 41 19 23 61 79 93
125 32 46 63 84 68 84 6 0 21 -16 35 -35 69 -96 143 -191 157 -202 20 -15 133
-18 133 -3 0 5 -42 69 -93 142 -52 73 -106 153 -121 177 l-28 43 45 67 c25 36
77 112 116 169 39 57 71 105 71 107 0 3 -31 5 -69 5 l-70 0 -58 -82 c-32 -46
-70 -100 -83 -120 -14 -21 -29 -37 -33 -35 -5 1 -46 54 -90 117 l-82 115 -68
3 c-50 2 -67 0 -67 -10z"/>
<path d="M8737 6063 c-4 -3 -7 -127 -7 -275 l0 -269 63 3 62 3 5 165 c4 136 8
171 23 193 24 37 62 60 111 67 l41 5 3 53 c2 41 0 54 -13 58 -19 7 -81 -19
-127 -53 -27 -20 -33 -21 -41 -8 -4 8 -7 21 -6 27 4 34 -2 38 -54 38 -30 0
-57 -3 -60 -7z"/>
<path d="M9389 6056 c-101 -27 -177 -126 -187 -241 -9 -117 44 -212 149 -270
102 -55 252 -34 337 48 60 57 77 101 77 197 0 99 -17 140 -85 208 -67 66 -178
89 -291 58z m206 -136 c25 -24 37 -47 44 -84 25 -123 -42 -216 -155 -216 -87
0 -147 57 -160 153 -8 59 22 124 74 161 32 22 46 26 99 23 56 -3 67 -7 98 -37z"/>
<path d="M10006 6062 c-13 -21 -18 -319 -7 -374 21 -101 80 -160 171 -173 62
-8 111 6 170 52 l45 35 5 -39 5 -38 55 0 55 0 3 273 2 272 -59 0 -59 0 -7
-167 c-8 -176 -13 -200 -59 -242 -31 -29 -108 -39 -146 -19 -50 26 -60 68 -60
240 0 86 -3 163 -6 172 -4 12 -20 16 -54 16 -27 0 -51 -4 -54 -8z"/>
<path d="M10805 6038 c-3 -18 -4 -186 -3 -373 l3 -340 63 -3 62 -3 0 136 c0
74 3 135 6 135 3 0 22 -13 42 -30 49 -39 136 -56 199 -40 127 32 197 127 197
270 1 165 -106 280 -260 280 -53 0 -120 -26 -156 -60 -21 -20 -23 -20 -26 -3
-10 64 -9 63 -67 63 -53 0 -54 -1 -60 -32z m365 -93 c118 -61 100 -274 -27
-316 -108 -35 -214 48 -213 167 1 66 65 152 125 167 27 7 84 -2 115 -18z"/>
</g>
</svg>
