<svg
   width="24.556904mm"
   height="17.279724mm"
   viewBox="0 0 24.556904 17.279724"
   version="1.1"
   xmlns="http://www.w3.org/2000/svg">
  <defs
     id="defs216" />
  <g
     transform="translate(-48.872324,-94.74602)">
    <g
       transform="matrix(0.27870523,0,0,0.27870523,47.200093,-175.9777)">
      <path
         style="opacity:1;fill:#000000;stroke:none"
         d="m 52.53125,19 c -8.891138,0 -17.283401,2.11681 -24.6875,5.90625 a 2.0001995,2.0001995 0 1 0 1.8125,3.5625 C 36.513003,24.95945 44.28163,23 52.53125,23 67.707796,23 81.288582,29.69621 90.5,40.28125 a 2.0001995,2.0001995 0 1 0 3,-2.625 C 83.560476,26.23453 68.887976,19 52.53125,19 Z M 14.875,23.34375 C 9.973676,23.34375 6,27.30536 6,32.1875 c 0,4.88214 3.973676,8.84375 8.875,8.84375 4.901323,0 8.875,-3.96161 8.875,-8.84375 0,-4.88214 -3.973677,-8.84375 -8.875,-8.84375 z M 11.65625,27.5 a 1.6137304,1.607418 0 0 1 1.3125,0.5 L 14.875,29.90625 16.78125,28 a 1.6137304,1.607418 0 0 1 1.125,-0.5 1.6137304,1.607418 0 0 1 1.15625,2.78125 l -1.90625,1.90625 1.90625,1.875 a 1.6162578,1.6099355 0 1 1 -2.28125,2.28125 L 14.875,34.4375 12.96875,36.34375 A 1.6162578,1.6099355 0 1 1 10.6875,34.0625 l 1.90625,-1.875 -1.90625,-1.90625 A 1.6137304,1.607418 0 0 1 11.65625,27.5 Z m 40.875,5.59375 c -12.460899,0 -23.624025,5.68549 -30.96875,14.59375 a 2.0085875,2.0085875 0 1 0 3.09375,2.5625 c 6.612219,-8.01982 16.628601,-13.15625 27.875,-13.15625 11.246397,0 21.294031,5.13643 27.90625,13.15625 A 2.0001995,2.0001995 0 1 0 83.5,47.6875 C 76.155275,38.77924 64.992147,33.09375 52.53125,33.09375 Z m 0,14.75 c -8.421407,0 -15.885334,4.14175 -20.46875,10.46875 a 2.003476,2.003476 0 0 0 3.25,2.34375 c 3.86053,-5.3291 10.107399,-8.8125 17.21875,-8.8125 7.11135,0 13.389469,3.4834 17.25,8.8125 a 2.003476,2.003476 0 0 0 3.25,-2.34375 c -4.583417,-6.327 -12.078594,-10.46875 -20.5,-10.46875 z m 0,16.71875 c -4.529891,0 -8.21875,3.70655 -8.21875,8.21875 0,4.5122 3.688859,8.21875 8.21875,8.21875 4.529891,0 8.25,-3.70655 8.25,-8.21875 0,-4.5122 -3.720109,-8.21875 -8.25,-8.21875 z m 0,4 c 2.363891,0 4.25,1.86405 4.25,4.21875 0,2.3546 -1.886109,4.21875 -4.25,4.21875 -2.36389,0 -4.21875,-1.86415 -4.21875,-4.21875 0,-2.3547 1.85486,-4.21875 4.21875,-4.21875 z"
         transform="translate(0,952.36218)"
        />
    </g>
  </g>
</svg>
